<svg width="16" height="16" viewBox="0 0 16 16" fill="none" xmlns="http://www.w3.org/2000/svg">
<g clip-path="url(#clip0_0_622)">
<path fill-rule="evenodd" clip-rule="evenodd" d="M1.6152 1.61544C1.79575 1.43489 2.04063 1.33346 2.29596 1.33346H13.7029C13.9447 1.33346 14.0431 1.36198 14.0976 1.38606C14.1553 1.41156 14.2282 1.45993 14.3837 1.61544C14.5909 1.82264 14.6657 2.04769 14.6657 2.29621V13.6648C14.665 13.6772 14.6647 13.6896 14.6647 13.7021C14.6647 13.9575 14.5632 14.2024 14.3827 14.3829C14.2021 14.5635 13.9572 14.6649 13.7019 14.6649H2.29596C2.04063 14.6649 1.79575 14.5635 1.6152 14.3829C1.43464 14.2024 1.33321 13.9575 1.33321 13.7021V2.29621C1.33321 2.04087 1.43464 1.79599 1.6152 1.61544ZM15.8382 14.5438C15.7238 14.8341 15.5504 15.1008 15.3255 15.3257C14.8949 15.7563 14.3109 15.9982 13.7019 15.9982H2.29596C1.68701 15.9982 1.10299 15.7563 0.672386 15.3257C0.241786 14.8951 -0.00012207 14.3111 -0.00012207 13.7021V2.29621C-0.00012207 1.68725 0.241786 1.10323 0.672386 0.67263C0.898376 0.446641 1.16662 0.272625 1.45855 0.158275C1.57479 0.0596277 1.72529 0.00012207 1.88969 0.00012207H2.29596H13.7029C14.0404 0.00012207 14.3458 0.0380298 14.6365 0.166482C14.924 0.293514 15.1376 0.483763 15.3265 0.672633C15.8081 1.15419 15.999 1.73001 15.999 2.29621V14.1095C15.999 14.2754 15.9384 14.4271 15.8382 14.5438Z" fill="#2D3440"/>
</g>
<defs>
<clipPath id="clip0_0_622">
<rect width="16" height="16" fill="white"/>
</clipPath>
</defs>
</svg>
